<svg xmlns="http://www.w3.org/2000/svg"
shape-rendering="geometricPrecision"
width="4000" height="4000" viewBox="0 0 1024 1024">
  <metadata>null</metadata>

<path d="
M 336.345 479.611
C 336.66 478.806 336.926 478.138 337.537 477.505
C 340.236 477.252 343.07 477.562 345.784 477.585
C 351.357 477.631 356.93 477.629 362.503 477.65
C 379.502 477.712 396.501 477.742 413.501 477.696
C 470.166 477.544 526.836 477.731 583.502 477.759
C 605.835 477.769 628.167 477.652 650.499 477.603
C 656.67 477.589 662.839 477.505 669.009 477.46
C 671.195 477.443 674.624 476.831 676.605 477.851
C 676.828 478.871 677.092 480.009 676.348 480.877
C 674.661 481.688 671.836 481.233 669.999 481.238
C 665 481.25 660 481.253 655 481.261
C 637.334 481.287 619.668 481.281 602.002 481.268
C 539.502 481.222 477.002 481.243 414.502 481.274
C 394.835 481.284 375.167 481.3 355.5 481.266
C 350.762 481.258 346.021 481.284 341.283 481.224
C 339.614 481.203 337.396 481.644 336.332 480.078
C 336.337 479.922 336.341 479.766 336.345 479.611 Z"
opacity="1" fill="rgb(185,137,60)" fill-rule="evenodd" />
<path d="
M 345.35 487.455
C 346.722 485.928 349.137 486.456 351.004 486.462
C 355.504 486.478 360.005 486.479 364.505 486.478
C 383.172 486.474 401.839 486.439 420.506 486.471
C 478.672 486.568 536.84 486.518 595.007 486.437
C 612.006 486.413 629.006 486.35 646.006 486.405
C 650.876 486.421 655.747 486.432 660.617 486.463
C 662.676 486.476 665.21 486.071 667.14 486.896
C 667.876 487.779 667.568 489.625 666.712 490.359
C 658.828 490.692 650.892 490.396 643.002 490.365
C 629.335 490.311 615.668 490.323 602.001 490.325
C 553.503 490.331 504.999 490.086 456.502 490.37
C 431.338 490.517 406.165 490.374 381.001 490.325
C 373.168 490.309 365.334 490.314 357.501 490.339
C 353.617 490.352 349.153 490.985 345.353 490.082
C 345.013 489.253 345.066 488.297 345.35 487.455 Z"
opacity="1" fill="rgb(189,146,65)" fill-rule="evenodd" />
<path d="
M 354.388 499.073
C 354.565 498.657 354.704 498.233 354.886 497.818
C 378.585 497.759 402.302 497.833 426.008 497.85
C 432.009 497.855 438.009 497.83 444.009 497.87
C 445.805 497.882 449.384 497.141 450.759 498.429
C 451.537 499.498 451.245 500.883 450.053 501.526
C 448.137 501.908 445.955 501.586 444.005 501.58
C 439.246 501.565 434.4 501.284 429.653 501.471
C 413.664 502.1 397.517 501.434 381.506 501.454
C 375.792 501.461 370.027 501.211 364.32 501.506
C 361.511 501.651 357.326 502.366 354.727 501.203
C 354.162 500.558 354.281 499.878 354.388 499.073 Z"
opacity="1" fill="rgb(182,137,56)" fill-rule="evenodd" />
<path d="
M 357.467 526.617
C 357.948 522.192 359.04 518.095 362.19 514.761
C 370.27 506.208 384.941 508.407 392.461 516.486
C 395.634 519.895 398.406 523.886 400.431 528.075
C 401.056 529.368 401.733 530.639 402.176 532.008
C 402.344 532.53 402.402 533.42 402.923 533.666
C 403.518 531.221 404.805 528.899 405.964 526.685
C 409.973 519.024 415.337 513.076 423.703 510.225
C 435.883 506.075 447.705 515.399 447.739 527.893
C 447.767 538.23 437.644 548.493 426.997 544.717
C 425.324 544.123 423.944 543.222 422.599 542.08
C 421.123 540.828 419.75 539.234 418.898 537.482
C 415.428 530.344 418.533 519.92 427.052 518.445
C 428.518 518.191 430.088 518.193 431.496 518.723
C 437.547 521.002 441.167 530.198 434.228 533.887
C 431.862 535.145 426.42 534.901 425.739 531.607
C 425.781 530.741 426.079 530.197 426.644 529.545
C 428.742 529.214 429.797 532.01 432.35 530.932
C 435.66 529.534 435.159 525.33 432.907 523.258
C 430.578 521.115 426.854 521.306 424.472 523.196
C 419.523 527.123 419.843 535.287 424.429 539.37
C 427.211 541.847 431.395 542.603 434.923 541.472
C 436.629 540.926 438.244 539.993 439.583 538.806
C 449.136 530.343 443.796 513.603 430.902 512.697
C 420.453 511.963 413.449 520.434 408.666 528.585
C 406.907 531.584 405.226 535.031 404.276 538.384
C 404.067 539.123 403.75 541.488 402.567 540.897
C 400.804 538.007 400.171 534.172 398.651 531.086
C 394.424 522.507 386.166 512.17 375.6 512.476
C 362.518 512.856 355.568 529.771 365.799 538.661
C 367.21 539.887 368.951 540.857 370.715 541.47
C 380.975 545.041 390.149 531.808 381.99 523.934
C 379.992 522.006 376.862 520.853 374.217 522.172
C 370.784 523.884 369.996 528.422 373.303 530.609
C 376.118 532.471 377.294 528.601 379.655 529.425
C 381.881 533.178 375.984 535.1 373.401 534.3
C 365.527 531.86 366.384 520.603 374.105 518.607
C 382.608 516.41 388.452 524.93 388.156 532.504
C 388.003 536.418 385.848 539.76 383.003 542.321
C 381.423 543.742 379.523 544.535 377.466 544.976
C 366.299 547.367 356.966 537.507 357.467 526.617 Z"
opacity="1" fill="rgb(181,136,58)" fill-rule="evenodd" />
<path d="
M 360.927 644.078
C 361.32 641.621 363.708 642.14 365.593 642.176
C 370.395 642.267 375.202 642.188 380.005 642.163
C 395.418 642.08 410.834 642.139 426.247 642.142
C 430.38 642.142 434.502 641.943 438.634 641.969
C 440.477 641.981 442.899 641.809 444.547 642.738
C 445.002 643.703 444.865 644.819 444.808 645.853
C 432.3 646.603 419.534 645.78 407 645.808
C 391.913 645.841 376.623 646.601 361.556 645.907
C 361.024 645.381 360.931 644.813 360.927 644.078 Z"
opacity="1" fill="rgb(179,137,56)" fill-rule="evenodd" />
<path d="
M 367.461 401.139
C 367.541 400.451 367.528 400.828 367.462 400.008
C 369.522 399.353 372.34 399.876 374.506 399.855
C 379.852 399.804 385.201 399.808 390.545 399.816
C 390.719 400.312 391.029 401.57 390.62 401.975
C 388.135 402.045 385.834 402.71 384.1 404.589
C 382.946 406.473 383.436 409.854 383.428 411.997
C 383.407 417.531 383.506 423.073 383.438 428.602
C 383.637 429.475 385.379 427.572 385.647 427.324
C 387.655 425.469 389.626 423.587 391.57 421.662
C 395.369 417.9 398.961 413.854 402.59 409.923
C 403.724 408.694 406.082 406.506 405.771 404.644
C 405.394 402.387 402.596 402.252 400.833 401.921
C 400.73 401.189 400.754 400.505 400.788 399.768
C 405.474 399.402 410.3 399.685 415.002 399.714
C 417.234 399.727 420.058 399.247 422.209 399.76
C 422.341 400.411 422.369 400.976 422.309 401.636
C 420.438 402.85 417.678 402.436 415.633 403.564
C 410.993 406.122 407.41 410.636 403.579 414.211
C 400.981 416.927 398.277 419.54 395.626 422.204
C 394.662 423.172 393.15 424.197 392.695 425.512
C 395.695 427.91 398.098 431.006 400.541 433.938
C 404.125 438.241 407.597 442.617 411.124 446.965
C 414.463 451.081 418.146 455.46 423.694 456.142
C 424.021 456.944 423.898 457.936 423.844 458.788
C 420.564 458.926 417.287 459.528 414.026 458.88
C 405.965 457.278 401.324 449.487 396.603 443.463
C 393.697 439.755 390.665 436.13 387.471 432.665
C 386.725 431.854 384.979 429.284 383.796 430.196
C 383.076 435.3 383.579 440.843 383.585 445.996
C 383.588 448.555 383.171 451.748 384.068 454.173
C 385.563 456.265 388.174 456.381 390.517 456.794
C 390.801 457.344 390.891 458.351 390.627 458.906
C 385.422 458.784 380.206 458.833 374.998 458.838
C 372.686 458.841 369.747 459.393 367.541 458.685
C 367.487 458.019 367.369 457.418 367.743 456.845
C 370.147 456.426 373.073 456.194 373.981 453.443
C 374.538 451.754 374.298 449.751 374.295 448.001
C 374.288 444.667 374.305 441.333 374.303 438
C 374.297 430.844 374.287 423.689 374.31 416.534
C 374.322 413.034 374.866 409.054 374.171 405.609
C 373.624 402.893 370.017 402.216 367.746 402.061
C 367.325 401.63 367.479 401.913 367.461 401.139 Z"
opacity="1" fill="rgb(183,141,69)" fill-rule="evenodd" />
<path d="
M 370.436 635.026
C 371.353 633.842 372.529 633.87 373.917 633.843
C 376.335 633.795 378.758 633.805 381.176 633.807
C 391.453 633.818 401.731 633.795 412.008 633.805
C 418.418 633.811 424.827 633.648 431.237 633.646
C 433.773 633.645 437.007 634.443 435.194 637.605
C 433.782 638.038 431.967 637.736 430.501 637.726
C 427.166 637.703 423.832 637.7 420.497 637.714
C 409.332 637.763 398.164 637.85 387 637.811
C 383.195 637.797 379.391 637.779 375.586 637.782
C 374.077 637.783 372.056 638.142 370.686 637.391
C 370.032 636.682 370.072 635.876 370.436 635.026 Z"
opacity="0.996" fill="rgb(183,145,72)" fill-rule="evenodd" />
<path d="
M 381.939 625.534
C 382.388 624.832 382.818 623.935 383.527 623.452
C 384.236 622.969 385.242 623.059 386.057 623.061
C 388.04 623.068 390.022 623.079 392.004 623.09
C 398.672 623.129 405.34 623.167 412.008 623.17
C 415.001 623.172 418.65 622.579 421.556 623.343
C 423.022 623.728 424.44 625.042 424.708 626.57
C 424.869 627.489 424.573 628.79 423.519 628.956
C 422.753 628.348 422.15 627.65 421.592 626.848
C 420.859 626.304 419.856 626.552 418.987 626.571
C 416.658 626.621 414.33 626.66 412 626.677
C 403.097 626.745 393.878 626.051 385.018 626.901
C 384.315 627.455 383.906 628.424 383.075 628.798
C 381.696 628.142 381.353 626.896 381.939 625.534 Z"
opacity="1" fill="rgb(177,137,58)" fill-rule="evenodd" />
<path d="
M 383.387 545.075
C 383.419 544.931 383.452 544.788 383.484 544.645
C 385.565 542.871 390.88 543.887 393.51 543.892
C 402.889 543.911 412.636 543.063 421.955 544.101
C 422.392 545.317 422.279 546.355 422.288 547.605
C 419.001 547.922 415.341 547.368 412.009 547.35
C 402.537 547.299 392.953 546.926 383.492 547.397
C 383.164 546.719 383.365 545.812 383.387 545.075 Z"
opacity="1" fill="rgb(181,134,58)" fill-rule="evenodd" />
<path d="
M 383.474 615.619
C 384.126 610.907 383.568 605.756 383.572 600.997
C 383.579 591.164 383.562 581.331 383.582 571.497
C 383.589 567.665 383.607 563.833 383.598 560.001
C 383.594 558.097 383.256 555.954 384.202 554.222
C 385.05 554.161 385.685 554.208 386.418 554.661
C 387.225 555.969 386.766 558.495 386.76 559.988
C 386.744 563.989 386.769 567.989 386.78 571.989
C 386.822 587.042 386.03 602.286 386.685 617.315
C 385.615 617.31 384.618 617.215 383.559 617.057
C 383.507 616.57 383.463 616.109 383.474 615.619 Z"
opacity="0.996" fill="rgb(175,134,57)" fill-rule="evenodd" />
<path d="
M 390.502 512.072
C 390.669 511.633 390.772 511.216 390.877 510.755
C 395.765 510.188 401.07 510.764 406.003 510.763
C 408.937 510.762 412.483 510.194 415.331 510.928
C 415.793 512.189 415.364 514.025 413.863 514.35
C 411.892 514.776 409.516 514.351 407.506 514.34
C 403.508 514.318 399.504 514.43 395.507 514.375
C 393.499 514.347 389.806 514.969 390.502 512.072 Z"
opacity="1" fill="rgb(189,142,71)" fill-rule="evenodd" />
<path d="
M 392.426 555.592
C 392.602 554.977 392.457 555.308 392.948 554.643
C 393.806 554.494 394.544 554.474 395.392 554.681
C 396.141 556.376 395.738 558.915 395.723 560.735
C 395.688 564.822 395.676 568.907 395.677 572.994
C 395.681 587.727 395.611 602.467 395.634 617.196
C 394.574 617.279 393.511 617.316 392.452 617.404
C 391.899 615.952 392.36 613.567 392.363 611.997
C 392.373 607.83 392.438 603.665 392.421 599.499
C 392.384 589.998 392.416 580.497 392.367 570.996
C 392.341 565.956 391.833 560.598 392.426 555.592 Z"
opacity="1" fill="rgb(177,134,62)" fill-rule="evenodd" />
<path d="
M 401.362 554.819
C 402.353 554.443 403.383 554.29 404.38 554.711
C 404.942 570.445 404.593 586.241 404.616 601.992
C 404.622 605.796 404.59 609.601 404.615 613.406
C 404.62 614.237 405.016 616.661 404.267 617.202
C 403.313 617.285 402.369 617.348 401.412 617.384
C 400.803 615.743 401.264 613.164 401.271 611.414
C 401.289 607.111 401.284 602.807 401.271 598.504
C 401.241 589.171 401.249 579.837 401.24 570.504
C 401.234 565.31 400.925 559.995 401.362 554.819 Z"
opacity="1" fill="rgb(182,143,68)" fill-rule="evenodd" />
<path d="
M 410.213 554.303
C 411.154 554.312 412.692 554.107 413.447 554.802
C 413.79 568.12 413.406 581.509 413.477 594.851
C 413.502 599.733 413.623 604.61 413.661 609.494
C 413.681 611.981 413.942 614.668 413.588 617.133
C 412.48 617.027 411.307 617.309 410.177 617.198
C 410.953 596.267 409.237 575.229 410.213 554.303 Z"
opacity="0.996" fill="rgb(185,144,70)" fill-rule="evenodd" />
<path d="
M 418.926 555.071
C 419.022 554.87 419.118 554.668 419.214 554.467
C 419.933 553.954 420.779 553.799 421.586 554.236
C 422.408 555.444 422.214 556.931 422.228 558.33
C 422.257 561.385 422.209 564.441 422.208 567.496
C 422.205 579.162 422.214 590.828 422.28 602.494
C 422.3 605.993 422.355 609.494 422.344 612.993
C 422.341 614.077 422.647 616.072 421.839 616.913
C 421.012 617.197 420.088 617.336 419.224 617.186
C 418.067 603.585 418.928 589.642 418.878 575.992
C 418.861 571.326 418.818 566.66 418.782 561.995
C 418.765 559.776 418.39 557.234 418.926 555.071 Z"
opacity="1" fill="rgb(182,138,61)" fill-rule="evenodd" />
<path d="
M 426.848 400.379
C 426.944 400.235 427.04 400.091 427.137 399.947
C 434.563 399.324 442.148 400.142 449.597 399.879
C 449.751 400.488 449.782 401.121 449.743 401.747
C 448.13 401.887 446.441 402.547 445.249 403.648
C 443.951 406.053 446.895 409.118 447.985 411.132
C 450.299 415.405 452.876 419.551 455.328 423.746
C 456.459 425.681 457.918 427.728 458.639 429.854
C 459.178 429.757 459.394 428.537 459.636 428.097
C 460.625 426.297 461.569 424.48 462.63 422.718
C 465.055 418.688 467.456 414.591 469.601 410.404
C 470.37 408.904 471.718 406.719 471.64 404.975
C 471.535 402.63 467.709 401.996 465.94 401.98
C 465.842 401.249 465.906 400.527 465.953 399.793
C 468.081 399.427 470.582 399.841 472.751 399.855
C 476.912 399.881 481.083 399.775 485.241 399.877
C 485.336 400.572 485.342 401.267 485.049 401.917
C 483.428 403.017 481.154 402.415 479.43 403.851
C 476.162 406.573 473.934 411.184 471.699 414.75
C 469.032 419.004 466.458 423.34 463.987 427.71
C 462.989 429.475 461.335 431.463 460.778 433.417
C 460.187 435.489 460.613 438.099 460.63 440.237
C 460.655 443.446 460.732 446.656 460.681 449.865
C 460.648 451.928 460.57 453.999 462.376 455.379
C 463.958 456.587 466.215 456.509 468.09 456.813
C 468.269 457.481 468.094 458.259 467.892 458.908
C 460.234 458.814 452.074 458.078 444.464 458.988
C 444.323 458.297 444.358 457.623 444.327 456.921
C 446.388 455.655 448.856 456.922 450.569 454.718
C 452.502 452.232 451.683 448.05 451.718 445.098
C 451.752 442.163 452.319 438.503 451.632 435.643
C 451.032 433.147 449.23 430.643 447.935 428.458
C 445.657 424.613 443.312 420.81 441.021 416.973
C 437.435 410.969 434.209 403.249 426.604 402.163
C 426.687 401.569 426.76 400.973 426.848 400.379 Z"
opacity="1" fill="rgb(183,142,68)" fill-rule="evenodd" />
<path d="
M 456.806 499
C 456.922 498.823 457.038 498.646 457.154 498.469
C 458.707 497.346 461.181 497.869 463.009 497.881
C 467.842 497.912 472.676 497.883 477.509 497.881
C 495.842 497.873 514.175 497.904 532.508 497.864
C 537.81 497.852 543.113 497.86 548.415 497.847
C 550.045 497.842 553.073 497.239 554.396 498.304
C 555.325 499.467 554.996 500.81 553.711 501.56
C 551.35 502.143 548.436 501.668 546.01 501.651
C 540.859 501.615 535.709 501.552 530.559 501.541
C 513.476 501.504 496.39 501.336 479.307 501.493
C 473.51 501.547 467.713 501.566 461.915 501.612
C 460.308 501.624 457.139 502.186 456.648 500.091
C 456.673 499.355 456.621 499.719 456.806 499 Z"
opacity="1" fill="rgb(183,140,59)" fill-rule="evenodd" />
<path d="
M 460.917 525.102
C 461.278 522.798 461.872 520.517 463 518.462
C 469.282 507.024 484.038 507.418 493.428 514.683
C 497.549 517.871 500.859 522.936 502.994 527.626
C 503.952 529.731 504.567 532.091 505.644 534.121
C 509.104 526.157 512.658 518.369 520.243 513.433
C 524.145 510.894 529.403 509.089 534.076 509.364
C 542.261 509.846 549.047 516.107 550.649 524.007
C 551.36 527.513 551.042 531.218 549.818 534.581
C 548.832 537.29 547.215 539.796 545.064 541.726
C 543.146 543.447 540.812 544.601 538.321 545.229
C 531.893 546.849 525.488 544.116 522.234 538.303
C 518.101 530.919 520.986 520.519 529.821 518.626
C 531.589 518.247 533.434 518.44 535.096 519.126
C 540.965 521.546 543.638 529.335 537.953 533.528
C 535.499 535.337 530.59 535.226 529.338 531.933
C 529.313 531.021 529.64 530.327 530.324 529.712
C 532.046 529.772 532.859 531.878 534.862 531.248
C 537.75 530.339 538.283 526.854 536.782 524.598
C 535.047 521.99 531.457 520.928 528.661 522.466
C 522.774 525.705 522.64 534.85 527.163 539.258
C 530.562 542.571 535.611 542.897 539.819 541.089
C 546.822 538.079 549.642 528.584 546.602 521.814
C 544.377 516.861 539.379 513.444 534.009 512.844
C 523.808 511.705 516.027 520.533 511.448 528.526
C 509.694 531.586 508.359 534.9 507.218 538.227
C 506.972 538.945 506.469 541.56 505.364 541.124
C 504.379 539.673 504.203 537.994 503.623 536.382
C 502.819 534.146 501.833 531.81 500.714 529.712
C 495.574 520.075 484.513 507.729 472.271 513.942
C 470.64 514.77 469.253 515.847 468.014 517.191
C 464.745 520.952 463.403 526.1 464.521 530.975
C 466.12 537.952 473.078 543.682 480.441 541.654
C 487.063 539.83 489.821 532.312 486.828 526.334
C 485.706 524.094 483.695 521.794 481.081 521.412
C 478.585 521.048 476.246 521.856 474.941 524.126
C 473.572 526.506 473.918 530.492 477.078 531.3
C 478.786 531.737 479.511 530.186 480.929 529.719
C 481.696 529.74 482.217 529.87 482.799 530.392
C 483.656 533.342 479.978 534.855 477.664 534.647
C 470.793 534.029 468.351 526.129 472.761 521.274
C 473.978 519.935 475.65 518.947 477.426 518.576
C 484.027 517.197 490.05 522.485 491.086 528.784
C 491.938 533.97 490.187 538.807 486.208 542.208
C 484.718 543.482 483.034 544.312 481.151 544.819
C 469.075 548.071 460.091 536.315 460.917 525.102 Z"
opacity="1" fill="rgb(183,138,59)" fill-rule="evenodd" />
<path d="
M 463.908 644.095
C 464.028 643.44 463.955 643.792 464.134 643.042
C 465.558 641.76 467.717 642.212 469.507 642.237
C 474.004 642.297 478.504 642.257 483.001 642.25
C 498.669 642.228 514.336 642.257 530.004 642.192
C 533.793 642.176 537.619 642.27 541.404 642.056
C 543.317 641.947 546.088 641.451 547.774 642.52
C 548.317 643.659 548.269 644.656 548.316 645.886
C 545.959 646.565 542.468 645.919 540 645.901
C 533.835 645.855 527.668 645.855 521.502 645.861
C 508.003 645.874 494.503 645.888 481.003 645.899
C 475.476 645.904 469.941 646.255 464.422 646.048
C 463.903 645.505 463.894 644.817 463.908 644.095 Z"
opacity="1" fill="rgb(178,134,54)" fill-rule="evenodd" />
<path d="
M 472.953 636.077
C 473.3 633.757 475.183 633.843 477.072 633.886
C 480.715 633.97 484.36 633.926 488.004 633.952
C 501.494 634.047 515.016 634.105 528.504 633.874
C 531.455 633.824 534.743 633.409 537.658 633.935
C 539.691 634.301 540.326 635.746 539.429 637.537
C 538.426 638.212 536.176 637.788 535.001 637.782
C 531.167 637.764 527.333 637.778 523.5 637.803
C 512.001 637.876 500.502 637.909 489.002 637.902
C 485.669 637.9 482.335 637.885 479.002 637.887
C 477.172 637.888 475.171 638.19 473.417 637.576
C 472.942 637.118 472.938 636.722 472.953 636.077 Z"
opacity="1" fill="rgb(183,145,73)" fill-rule="evenodd" />
<path d="
M 485.328 625.981
C 487.399 622.425 491.654 623.424 495.222 623.43
C 501.65 623.442 508.08 623.385 514.508 623.371
C 517.686 623.364 521.181 622.964 524.318 623.538
C 526.183 623.879 529.162 627.38 526.818 628.863
C 525.768 629.014 524.987 627.78 524.435 627.024
C 523.41 626.56 522.111 626.816 521.006 626.821
C 518.672 626.832 516.339 626.873 514.005 626.883
C 505.533 626.918 497.023 627.081 488.556 626.896
C 487.51 627.367 487.196 629.062 486.113 629.309
C 484.871 628.794 484.947 627.037 485.328 625.981 Z"
opacity="1" fill="rgb(179,138,62)" fill-rule="evenodd" />
<path d="
M 486.397 544.404
C 490.223 543.762 494.144 543.957 498.007 543.957
C 503.01 543.957 508.007 543.848 513.01 543.889
C 516.683 543.919 521.489 543.169 524.967 544.513
C 525.62 545.374 525.833 546.273 525.686 547.347
C 524.732 547.581 523.497 547.333 522.507 547.339
C 519.841 547.358 517.175 547.354 514.509 547.352
C 505.181 547.342 495.546 546.706 486.266 547.618
C 486.171 546.561 486.143 545.44 486.397 544.404 Z"
opacity="1" fill="rgb(183,138,61)" fill-rule="evenodd" />
<path d="
M 486.901 555.585
C 487.06 555.157 487.148 554.742 487.404 554.361
C 488.322 554.271 488.939 554.392 489.675 554.97
C 490.628 556.354 490.241 558.657 490.233 560.263
C 490.213 564.174 490.187 568.083 490.191 571.994
C 490.21 587.067 490.116 602.15 490.087 617.214
C 489.233 617.472 488.022 617.277 487.128 617.3
C 486.496 615.451 486.888 612.942 486.893 610.998
C 486.905 606.664 486.88 602.329 486.871 597.995
C 486.851 588.496 486.777 578.997 486.789 569.498
C 486.794 564.938 486.318 560.11 486.901 555.585 Z"
opacity="1" fill="rgb(179,134,56)" fill-rule="evenodd" />
<path d="
M 490.505 401.128
C 490.596 400.478 490.551 400.824 490.639 400.092
C 491.639 399.246 495.181 399.951 496.51 399.944
C 500.509 399.922 504.509 399.921 508.509 399.925
C 510.365 399.926 512.509 399.592 514.328 399.938
C 514.411 400.592 514.449 401.236 514.339 401.886
C 511.678 402.437 508.953 402.238 507.601 405.142
C 506.899 406.649 507.101 408.647 507.087 410.268
C 507.058 413.51 507.098 416.754 507.109 419.997
C 507.149 431.523 506.72 443.153 507.355 454.664
C 507.909 455.008 508.871 454.837 509.516 454.857
C 511.321 454.912 513.123 454.932 514.928 454.936
C 519.415 454.946 525.866 456.022 529.346 452.432
C 531.776 449.924 532.464 446.343 533.694 443.214
C 534.442 442.622 535.505 442.581 536.385 442.96
C 535.881 448.072 534.405 453.691 534.726 458.821
C 533.639 459.109 532.133 458.864 531 458.844
C 528.5 458.801 525.999 458.82 523.498 458.793
C 515.998 458.712 508.498 458.797 500.998 458.836
C 498.666 458.848 496.335 458.894 494.004 458.912
C 493.331 458.918 491.969 459.184 491.372 458.95
C 490.835 458.739 491.129 457.184 491.241 456.812
C 493.785 456.471 496.692 456.158 497.701 453.321
C 498.834 450.134 497.973 445.386 497.961 442.039
C 497.931 434.19 497.948 426.342 497.939 418.493
C 497.936 415.583 497.961 412.671 497.936 409.761
C 497.924 408.347 498.063 406.62 497.558 405.276
C 496.857 403.405 494.621 402.474 492.797 402.176
C 492.067 402.057 491.079 402.101 490.492 401.637
C 490.496 401.467 490.5 401.298 490.505 401.128 Z"
opacity="1" fill="rgb(183,142,68)" fill-rule="evenodd" />
<path d="
M 493.46 512.04
C 493.811 511.377 493.583 511.694 494.172 511.111
C 499.976 510.061 506.609 510.918 512.507 510.924
C 513.776 510.926 517.503 510.292 518.299 511.372
C 518.397 512.32 518.439 513.187 518.021 514.054
C 516.137 514.914 513.536 514.426 511.507 514.417
C 507.173 514.396 502.837 514.489 498.504 514.452
C 496.386 514.434 492.524 515.258 493.46 512.04 Z"
opacity="1" fill="rgb(189,146,72)" fill-rule="evenodd" />
<path d="
M 495.861 556.075
C 496.093 555.425 495.965 555.786 496.246 554.991
C 497.073 554.496 497.761 554.411 498.702 554.592
C 499.424 555.818 499.203 557.385 499.202 558.756
C 499.2 561.836 499.191 564.916 499.198 567.996
C 499.223 579.663 499.242 591.329 499.21 602.995
C 499.201 606.495 499.183 609.994 499.144 613.494
C 499.131 614.617 499.47 616.398 498.842 617.379
C 497.845 617.4 496.85 617.38 495.853 617.424
C 495.447 613.694 495.825 609.746 495.822 605.992
C 495.816 598.495 495.766 590.997 495.759 583.5
C 495.753 577.501 495.732 571.501 495.734 565.502
C 495.734 562.415 495.419 559.133 495.861 556.075 Z"
opacity="1" fill="rgb(186,144,64)" fill-rule="evenodd" />
<path d="
M 504.817 554.837
C 505.729 554.301 506.798 554.03 507.704 554.726
C 508.297 558.732 507.968 562.955 507.96 566.997
C 507.948 573.997 507.963 580.997 507.942 587.997
C 507.922 594.497 507.963 600.997 507.967 607.497
C 507.969 610.734 508.296 614.183 507.845 617.391
C 506.874 617.484 505.905 617.53 504.935 617.606
C 504.277 616.463 504.714 614.31 504.719 613.004
C 504.733 609.004 504.732 605.004 504.729 601.004
C 504.722 591.006 504.713 581.006 504.655 571.009
C 504.624 565.793 503.855 559.972 504.817 554.837 Z"
opacity="0.996" fill="rgb(181,138,63)" fill-rule="evenodd" />
<path d="
M 513.411 555.597
C 513.526 554.98 513.458 555.318 513.623 554.584
C 514.461 554.072 515.918 554.123 516.656 554.769
C 517.28 557.207 516.883 560.157 516.857 562.659
C 516.81 567.269 516.848 571.879 516.828 576.489
C 516.766 590.028 517.504 603.802 516.715 617.308
C 515.832 617.445 514.444 617.583 513.622 617.232
C 513.044 606.052 513.73 594.711 513.646 583.51
C 513.576 574.321 512.642 564.751 513.411 555.597 Z"
opacity="0.996" fill="rgb(182,143,68)" fill-rule="evenodd" />
<path d="
M 522.382 554.903
C 523.163 554.291 523.936 554.119 524.91 554.326
C 525.879 555.767 525.648 557.632 525.654 559.3
C 525.669 562.864 525.687 566.427 525.687 569.991
C 525.687 580.992 525.675 591.992 525.694 602.992
C 525.7 606.16 525.726 609.326 525.763 612.493
C 525.78 613.923 526.087 615.767 525.594 617.124
C 524.628 617.52 523.433 617.401 522.404 617.487
C 521.656 613.041 522.299 608.01 522.307 603.501
C 522.321 594.501 522.289 585.501 522.28 576.502
C 522.275 571.669 522.273 566.836 522.25 562.004
C 522.24 559.748 521.805 557.089 522.382 554.903 Z"
opacity="1" fill="rgb(183,140,70)" fill-rule="evenodd" />
<path d="
M 535.279 399.837
C 540.521 399.927 545.762 399.903 551.007 399.9
C 553.322 399.899 556.146 399.444 558.4 399.944
C 558.421 400.575 558.42 401.211 558.35 401.839
C 556.02 402.044 554.089 402.588 552.657 404.562
C 552.258 405.94 552.866 407.465 553.366 408.76
C 554.327 411.25 555.34 413.721 556.309 416.208
C 558.911 422.882 561.486 429.565 564.164 436.208
C 565.619 439.817 566.6 444.108 568.61 447.434
C 569.084 447.421 569.478 445.065 569.64 444.593
C 570.668 441.612 571.82 438.656 572.95 435.712
C 575.792 428.312 578.525 420.873 581.31 413.451
C 582.13 411.264 584.525 407.059 583.607 404.682
C 582.703 402.342 580.099 402.246 578.015 401.926
C 577.707 401.259 577.823 400.567 577.819 399.846
C 583.817 399.68 590.359 399.405 596.321 400.052
C 596.398 400.664 596.615 401.583 596.257 402.142
C 594.677 402.48 593.019 402.555 591.66 403.519
C 589.968 404.719 589.019 406.795 588.171 408.624
C 586.775 411.633 585.533 414.697 584.299 417.774
C 580.462 427.346 576.516 436.878 572.734 446.472
C 571.573 449.419 570.479 452.429 569.382 455.403
C 568.902 456.705 568.333 458.81 567.447 459.858
C 566.299 459.93 565.148 459.849 564.003 459.969
C 563.193 459.202 562.789 457.459 562.319 456.429
C 560.791 453.083 559.616 449.587 558.195 446.196
C 553.327 434.581 548.714 422.835 544.076 411.127
C 543.128 408.734 542.066 405.659 540.051 403.945
C 539.083 403.121 538.003 402.687 536.807 402.309
C 536.422 402.187 535.427 402.107 535.174 401.761
C 534.866 401.339 535.2 400.252 535.279 399.837 Z"
opacity="1" fill="rgb(184,142,69)" fill-rule="evenodd" />
<path d="
M 560.74 498.965
C 560.863 498.77 560.986 498.576 561.108 498.381
C 563.07 497.26 566.301 497.903 568.509 497.899
C 574.509 497.886 580.508 497.868 586.508 497.86
C 602.674 497.841 618.841 497.854 635.007 497.825
C 640.174 497.815 645.341 497.801 650.508 497.822
C 652.883 497.831 655.687 497.378 657.996 497.926
C 658.333 499.047 658.578 500.052 658.181 501.204
C 655.942 502.179 652.396 501.64 650.007 501.643
C 644.045 501.65 638.084 501.596 632.123 501.547
C 616.011 501.413 599.894 501.361 583.782 501.485
C 578.789 501.523 573.797 501.593 568.804 501.614
C 566.488 501.624 563.672 502.092 561.44 501.414
C 560.6 500.741 560.49 499.985 560.74 498.965 Z"
opacity="1" fill="rgb(183,140,61)" fill-rule="evenodd" />
<path d="
M 564.929 523.083
C 565.8 520.309 566.661 517.761 568.582 515.504
C 577.774 504.702 594.313 509.565 601.997 519.378
C 604.586 522.685 606.547 526.353 608.25 530.179
C 608.593 530.951 609.193 533.867 609.899 534.123
C 612.393 526.046 617.331 517.436 624.681 512.975
C 634.69 506.901 650.21 508.8 654.136 521.396
C 655.199 524.809 655.275 528.399 654.438 531.873
C 653.704 534.923 652.305 537.578 650.237 539.935
C 645.566 545.259 636.291 547.703 630.344 543.066
C 623.04 537.371 622.092 524.437 630.968 519.663
C 632.637 518.765 634.634 518.259 636.531 518.422
C 638.185 518.564 639.708 519.298 641.092 520.181
C 644.467 522.334 646.332 527.053 644.235 530.731
C 642.169 534.354 636.08 536.184 633.096 532.573
C 632.68 531.627 633.012 530.724 633.3 529.786
C 634.435 529.35 635.128 530.291 636.099 530.712
C 637.703 531.406 639.51 531.043 640.653 529.714
C 642.815 527.201 641.111 523.458 638.332 522.234
C 636.337 521.355 634.085 521.706 632.279 522.839
C 626.725 526.325 626.535 534.497 630.902 538.975
C 632.9 541.022 636.041 542.033 638.861 541.971
C 646.633 541.801 651.805 534.348 651.56 526.999
C 651.388 521.822 648.504 517.094 643.957 514.613
C 631.629 507.888 620.113 519.658 614.981 529.918
C 613.643 532.594 612.178 535.49 611.324 538.361
C 611.117 539.057 610.879 541.064 610.089 541.327
C 609.259 540.636 608.962 539.199 608.617 538.212
C 607.914 536.206 607.047 534.253 606.155 532.324
C 603.865 527.375 600.077 521.865 595.989 518.228
C 593.544 516.053 590.701 514.161 587.552 513.197
C 585.015 512.42 582.234 512.104 579.623 512.718
C 572.802 514.321 567.875 520.474 567.915 527.544
C 567.961 535.762 575.234 543.478 583.735 541.736
C 587.53 540.958 590.939 537.704 591.828 533.929
C 593.065 528.676 590.119 522.31 584.37 521.484
C 581.646 521.092 579.04 523.027 578.291 525.595
C 577.622 527.884 578.898 530.927 581.489 531.275
C 582.96 531.473 584.034 529.888 585.291 529.374
C 586.675 529.48 587.01 530.564 586.656 531.751
C 584.576 536.128 579.115 534.871 576.479 531.733
C 573.674 528.393 574.632 523.396 577.702 520.55
C 581.611 516.925 588.186 518.31 591.629 521.92
C 595.849 526.346 596.72 534.64 592.81 539.502
C 591.424 541.226 589.773 542.914 587.812 543.969
C 586.013 544.937 583.935 545.262 581.916 545.343
C 570.184 545.817 562.477 534.012 564.929 523.083 Z"
opacity="1" fill="rgb(183,139,62)" fill-rule="evenodd" />
<path d="
M 567.405 643.529
C 568.417 641.973 569.813 642.149 571.47 642.166
C 574.815 642.201 578.159 642.206 581.505 642.183
C 595.667 642.087 609.83 642.185 623.992 642.107
C 631.635 642.064 639.294 641.813 646.937 641.962
C 648.157 641.986 649.869 641.857 650.913 642.582
C 651.92 643.282 652.287 645.02 651.144 645.763
C 644.68 646.766 637.536 645.862 630.998 645.848
C 617.999 645.819 604.999 645.854 591.999 645.852
C 586.596 645.851 581.034 645.489 575.647 645.931
C 573.289 646.124 569.969 646.632 567.742 645.72
C 567.142 645.06 567.148 644.355 567.405 643.529 Z"
opacity="1" fill="rgb(180,136,58)" fill-rule="evenodd" />
<path d="
M 576.855 636.04
C 577.839 632.6 584.712 633.971 587.504 633.964
C 598.338 633.94 609.172 633.918 620.006 633.901
C 626.476 633.89 632.948 633.866 639.417 633.788
C 641.154 633.767 644.51 635.263 642.497 637.543
C 641.217 638.097 639.368 637.787 638 637.781
C 634.667 637.766 631.333 637.79 628 637.811
C 616.335 637.885 604.668 637.922 593.002 637.902
C 589.503 637.896 586.002 637.9 582.503 637.882
C 580.743 637.873 578.736 638.199 577.101 637.42
C 576.822 636.93 576.837 636.611 576.855 636.04 Z"
opacity="1" fill="rgb(185,146,77)" fill-rule="evenodd" />
<path d="
M 588.425 626.033
C 590.616 622.356 594.46 623.332 598.241 623.317
C 604.829 623.29 611.417 623.32 618.005 623.3
C 621.28 623.291 625.116 622.735 628.32 623.48
C 629.755 623.814 631.071 625.202 631.318 626.665
C 631.497 627.723 631.177 628.984 629.935 629.035
C 629.308 628.48 628.829 627.761 628.407 627.041
C 627.62 626.479 626.353 626.762 625.427 626.783
C 623.287 626.83 621.145 626.844 619.005 626.857
C 613.235 626.89 607.467 626.866 601.698 626.807
C 598.351 626.773 594.812 626.473 591.494 626.948
C 590.832 627.449 590.439 628.194 589.765 628.683
C 589.068 628.91 588.561 628.514 588.231 627.919
C 588.164 627.244 588.196 626.673 588.425 626.033 Z"
opacity="1" fill="rgb(178,137,63)" fill-rule="evenodd" />
<path d="
M 590.372 544.379
C 593.5 543.358 597.269 543.9 600.522 543.919
C 606.353 543.953 612.179 543.817 618.009 543.854
C 621.412 543.875 625.84 543.147 629.055 544.398
C 629.709 545.261 629.476 546.202 629.188 547.169
C 628.331 547.574 626.951 547.333 626.007 547.346
C 623.341 547.38 620.674 547.332 618.008 547.323
C 608.839 547.292 599.401 546.816 590.271 547.608
C 590.081 546.584 590.011 545.364 590.372 544.379 Z"
opacity="1" fill="rgb(182,135,59)" fill-rule="evenodd" />
<path d="
M 590.283 554.943
C 590.376 554.784 590.469 554.625 590.562 554.465
C 591.307 554.105 592.079 553.932 592.802 554.395
C 593.727 555.665 593.414 557.765 593.402 559.267
C 593.374 563.009 593.362 566.749 593.375 570.491
C 593.41 580.64 593.429 590.789 593.497 600.937
C 593.532 606.137 594.32 611.826 593.423 616.964
C 592.812 617.478 591.088 617.394 590.462 616.993
C 589.884 614.312 590.277 611.24 590.281 608.504
C 590.288 603.004 590.315 597.504 590.287 592.004
C 590.244 583.672 590.185 575.34 590.189 567.008
C 590.191 563.136 589.568 558.745 590.283 554.943 Z"
opacity="1" fill="rgb(179,135,61)" fill-rule="evenodd" />
<path d="
M 592.29 456.947
C 594.395 456.577 596.92 455.978 598.582 454.549
C 601.488 452.052 602.823 446.821 604.228 443.381
C 608.35 433.289 612.512 423.205 616.51 413.063
C 617.684 410.083 618.818 407.096 620.039 404.134
C 620.681 402.576 621.21 400.651 622.458 399.45
C 623.447 398.498 625.002 398.269 626.294 398.066
C 627.068 398.88 627.346 400.315 627.77 401.345
C 628.935 404.17 629.958 407.056 631.121 409.881
C 635.319 420.067 639.328 430.366 643.214 440.675
C 644.833 444.97 646.115 451.336 649.425 454.659
C 651.012 456.251 653.148 455.959 654.914 457.049
C 655.074 457.651 655.249 458.331 654.854 458.868
C 649.084 458.673 643.278 458.907 637.504 458.868
C 636.21 458.859 634.917 458.924 633.624 458.879
C 633.323 458.869 632.351 458.992 632.105 458.804
C 631.926 458.668 632.024 457.522 632.025 457.436
C 633.724 456.042 636.428 456.725 637.563 454.26
C 638.14 453.008 637.302 451.147 636.903 449.958
C 635.653 446.228 634.437 441.754 632.56 438.311
C 625.375 437.756 617.68 437.991 610.486 438.388
C 608.787 442.057 607.43 446.095 606.225 449.953
C 605.837 451.194 604.885 453.127 605.572 454.403
C 606.769 456.626 609.964 456.656 612.123 456.854
C 612.434 457.482 612.115 458.47 612.12 459.158
C 605.901 457.925 599.075 459.166 592.756 458.837
C 592.313 458.3 592.36 457.622 592.29 456.947 Z
M 612.451 433.569
C 612.189 434.317 612.285 433.94 612.157 434.699
C 616.771 434.749 621.39 434.813 626.007 434.818
C 627.238 434.819 630.243 434.234 631.218 434.826
C 629.955 433.136 629.442 430.232 628.721 428.245
C 627.205 424.067 625.647 419.91 624.117 415.737
C 623.598 414.321 623.126 412.852 622.522 411.47
C 622.277 410.911 622.194 409.776 621.485 410.357
C 619.149 418.259 615.452 425.893 612.451 433.569 Z"
opacity="1" fill="rgb(184,142,69)" fill-rule="evenodd" />
<path d="
M 597.404 510.879
C 601.746 510.515 606.142 510.743 610.499 510.723
C 614.554 510.706 618.665 510.445 622.712 510.653
C 622.723 511.864 622.646 512.817 621.93 513.836
C 620.604 514.932 617.851 514.348 616.235 514.333
C 611.711 514.291 607.184 514.26 602.66 514.339
C 601.073 514.366 598.671 514.726 597.382 513.603
C 596.968 512.728 597.236 511.795 597.404 510.879 Z"
opacity="1" fill="rgb(191,146,75)" fill-rule="evenodd" />
<path d="
M 599.447 554.902
C 599.542 554.802 599.637 554.703 599.732 554.603
C 600.553 554.533 601.188 554.529 601.941 554.875
C 602.863 555.874 602.43 558.212 602.428 559.496
C 602.422 563.327 602.38 567.159 602.363 570.99
C 602.293 586.416 601.864 601.985 602.336 617.393
C 601.37 617.482 600.34 617.439 599.38 617.322
C 598.742 615.759 599.095 613.67 599.078 612.001
C 599.038 608.169 599.097 604.335 599.12 600.502
C 599.182 590.335 599.153 580.167 599.081 570.001
C 599.057 566.665 599.014 563.327 599.051 559.991
C 599.069 558.3 598.917 556.529 599.447 554.902 Z"
opacity="0.996" fill="rgb(182,138,60)" fill-rule="evenodd" />
<path d="
M 608.361 555.43
C 608.992 554.752 610.262 554.231 611.083 554.814
C 611.671 556.182 611.37 558.022 611.376 559.491
C 611.388 562.657 611.363 565.824 611.367 568.99
C 611.384 580.324 611.402 591.657 611.376 602.991
C 611.367 606.657 611.3 610.324 611.294 613.99
C 611.293 614.752 611.702 617.027 611.238 617.554
C 610.262 617.719 609.288 617.523 608.31 617.521
C 607.692 616.059 608.067 614.067 608.072 612.497
C 608.084 608.667 608.15 604.837 608.156 601.007
C 608.174 590.672 608.092 580.335 608.076 569.999
C 608.072 566.831 608.057 563.664 608.052 560.496
C 608.048 558.827 607.851 557.041 608.361 555.43 Z"
opacity="0.996" fill="rgb(182,139,63)" fill-rule="evenodd" />
<path d="
M 616.949 555.6
C 617.079 555.154 617.099 554.755 617.334 554.348
C 618.222 554.34 618.999 554.378 619.87 554.582
C 620.765 555.578 620.281 557.73 620.28 558.988
C 620.277 562.821 620.293 566.655 620.295 570.488
C 620.303 586.06 620.888 601.774 620.231 617.327
C 619.275 617.555 618.029 617.439 617.055 617.356
C 616.551 613.478 616.897 609.4 616.906 605.492
C 616.92 598.992 616.872 592.491 616.878 585.991
C 616.883 579.491 616.89 572.99 616.872 566.49
C 616.863 562.915 616.52 559.152 616.949 555.6 Z"
opacity="1" fill="rgb(184,141,62)" fill-rule="evenodd" />
<path d="
M 625.845 555.043
C 626.219 553.938 627.637 553.763 628.553 554.37
C 629.32 555.739 628.948 557.965 628.953 559.498
C 628.965 563.331 628.954 567.164 628.955 570.997
C 628.957 581.163 628.927 591.33 628.929 601.496
C 628.929 606.456 629.709 612.03 628.839 616.916
C 628.168 617.503 626.786 617.524 625.943 617.512
C 625.247 613.676 625.721 609.398 625.719 605.504
C 625.715 598.171 625.727 590.837 625.729 583.504
C 625.73 577.338 625.727 571.172 625.706 565.006
C 625.695 561.783 625.251 558.218 625.845 555.043 Z"
opacity="0.996" fill="rgb(179,135,62)" fill-rule="evenodd" />

</svg>